# xmcd
#
# Track frame offsets:
#	150
#	14563
#	26479
#	39603
#	52244
#	64446
#	77856
#	92271
#	114367
#	128044
#	143161
#	157300
#	170514
#	182064
#	192014
#	206216
#	219984
#	232766
#	242902
#	256186
#
# Disc length: 3571 seconds
#
# Revision: 0
# Processed by: cddbd v1.5.1PL0 Copyright (c) Steve Scherf et al.
# Submitted via: dBpowerAMP V4.0
#
DISCID=1c0df114
DTITLE=Various Artist - Best of the Blues, CD 1
DYEAR=1900
DGENRE=Blues
TTITLE0=T-Bone Walker - Born to be No Good
TTITLE1=T-Bone Walker - Bobby Sox Blues
TTITLE2=T-Bone Walker - First Love Blues
TTITLE3=T-Bone Walker - Hypin' Woman Blues
TTITLE4=T-Bone Walker - T-Bone Jumps Again
TTITLE5=T-Bone Walker - T-Bone Shuffle
TTITLE6=Big Bill Broonzy - Baby, Please Don't Go
TTITLE7=Big Bill Broonzy - Hey! Bud Blues
TTITLE8=Big Bill Broonzy - Down by the Riverside
TTITLE9=Big Bill Broonzy - Kind Hearted Blues
TTITLE10=Big Bill Broonzy - Letter to my Baby
TTITLE11=Josh White - Frankie and Johnny
TTITLE12=Josh White - I Gave My Love a Cherry
TTITLE13=Josh White - Free and Equal Blues
TTITLE14=Josh White - John Henry
TTITLE15=Josh White - Nobody Wants You When You're Down and Out
TTITLE16=Robert Johnson - Ramblin' on my Mind
TTITLE17=Robert Johnson - Stop Breakin' Down Blues
TTITLE18=Robert Johnson - They're Red Hot
TTITLE19=Robert Johnson - When You Got a Good Friend
EXTD=Submitted by Danny
EXTT0=
EXTT1=
EXTT2=
EXTT3=
EXTT4=
EXTT5=
EXTT6=
EXTT7=
EXTT8=
EXTT9=
EXTT10=
EXTT11=
EXTT12=
EXTT13=
EXTT14=
EXTT15=
EXTT16=
EXTT17=
EXTT18=
EXTT19=
PLAYORDER=
